<svg width="69.000000" height="69.000000" viewBox="0 0 69 69" fill="none" xmlns="http://www.w3.org/2000/svg" xmlns:xlink="http://www.w3.org/1999/xlink">
	<desc>
			Created with Pixso.
	</desc>
	<defs>
		<clipPath id="clip1_397">
			<rect id="heroicons:wrench-screwdriver-20-solid" width="69.000000" height="69.000000" fill="white" fill-opacity="0"/>
		</clipPath>
	</defs>
	<rect id="heroicons:wrench-screwdriver-20-solid" width="69.000000" height="69.000000" fill="#FFFFFF" fill-opacity="0"/>
	<g clip-path="url(#clip1_397)">
		<path id="Vector" d="M50.02 34.5C52.47 34.5 54.88 33.92 57.06 32.81C59.24 31.7 61.13 30.09 62.57 28.11C64.02 26.13 64.97 23.84 65.36 21.42C65.74 19.01 65.55 16.53 64.8 14.2C64.44 13.08 63.04 12.85 62.21 13.68L52.92 22.97C52.7 23.2 52.43 23.35 52.13 23.42C51.82 23.49 51.51 23.46 51.22 23.35C48.7 22.3 46.69 20.3 45.63 17.78C45.52 17.49 45.5 17.17 45.57 16.87C45.63 16.56 45.79 16.29 46.01 16.07L55.31 6.78C56.14 5.95 55.91 4.55 54.79 4.19C52.38 3.41 49.82 3.24 47.32 3.68C44.83 4.12 42.48 5.16 40.48 6.72C38.48 8.27 36.9 10.3 35.86 12.61C34.82 14.92 34.36 17.45 34.53 19.97C34.72 22.99 34.09 26.21 31.77 28.14L6.83 48.93C5.82 49.76 5.01 50.8 4.43 51.97C3.85 53.14 3.52 54.41 3.46 55.72C3.41 57.02 3.62 58.32 4.09 59.54C4.56 60.76 5.29 61.86 6.21 62.78C7.13 63.71 8.23 64.43 9.45 64.9C10.67 65.37 11.97 65.58 13.27 65.53C14.58 65.47 15.85 65.14 17.02 64.56C18.19 63.98 19.23 63.17 20.06 62.16L40.85 37.22C42.78 34.9 46 34.27 49.02 34.46C49.35 34.49 49.68 34.5 50.02 34.5ZM17.25 55.2C17.25 56.11 16.88 56.99 16.23 57.63C15.59 58.28 14.71 58.65 13.8 58.65C12.88 58.65 12 58.28 11.36 57.63C10.71 56.99 10.34 56.11 10.34 55.2C10.34 54.28 10.71 53.4 11.36 52.76C12 52.11 12.88 51.75 13.8 51.75C14.71 51.75 15.59 52.11 16.23 52.76C16.88 53.4 17.25 54.28 17.25 55.2Z" fill="#009CDE" fill-opacity="1.000000" fill-rule="evenodd"/>
		<path id="Vector" d="M50.02 39.67C50.62 39.67 51.21 39.65 51.79 39.59L64.74 52.55C66.36 54.16 67.27 56.36 67.27 58.65C67.27 60.93 66.36 63.13 64.74 64.74C63.13 66.36 60.93 67.27 58.64 67.27C56.36 67.27 54.16 66.36 52.54 64.74L37.33 49.53L44.82 40.54C45 40.32 45.33 40.06 46 39.86C46.88 39.63 47.78 39.55 48.68 39.63C49.13 39.66 49.57 39.67 50.02 39.67ZM20.69 15.82L28.73 23.86C28.65 23.97 28.56 24.08 28.46 24.17L23.45 28.33L15.82 20.7L11.41 20.7C11.09 20.7 10.78 20.61 10.5 20.44C10.23 20.27 10.01 20.03 9.87 19.74L4 8.01C3.84 7.68 3.78 7.32 3.84 6.96C3.9 6.6 4.07 6.27 4.32 6.02L6.01 4.32C6.27 4.07 6.6 3.9 6.96 3.84C7.31 3.78 7.68 3.84 8 4L19.74 9.87C20.03 10.01 20.27 10.23 20.44 10.5C20.61 10.78 20.7 11.09 20.69 11.41L20.69 15.82Z" fill="#009CDE" fill-opacity="1.000000" fill-rule="nonzero"/>
	</g>
</svg>
